<?xml version="1.0" encoding="UTF-8"?>
<svg id="Capa_2" data-name="Capa 2" xmlns="http://www.w3.org/2000/svg" viewBox="0 0 122.16 68.51">
  <defs>
    <style>
      .cls-1 {
        fill: #ff3008;
        stroke-width: 0px;
      }
    </style>
  </defs>
  <g id="Capa_1-2" data-name="Capa 1">
    <path class="cls-1" d="m117.43,16.21C112.03,6.2,101.46-.04,89.96,0H2.97C1.77,0,.69.73.23,1.83-.23,2.94.02,4.2.87,5.04l18.95,18.8c1.67,1.67,3.95,2.6,6.32,2.6h61.32c4.37-.05,7.94,3.42,7.99,7.72.05,4.31-3.46,7.84-7.83,7.88h-42.28c-1.2,0-2.29.72-2.76,1.83-.46,1.1-.21,2.38.64,3.22l18.96,18.82c1.68,1.66,3.96,2.6,6.32,2.59h19.12c24.88,0,43.69-26.25,29.79-52.31"/>
  </g>
</svg>